<svg xmlns="http://www.w3.org/2000/svg" width="24" height="24" viewBox="0 0 24 24">
    <path fill="#F56B2A" fill-rule="evenodd" d="M18.084 9.366l-6.956 7.251a1.021 1.021 0 0 1-1.488 0l-2.735-2.85a1.13 1.13 0 0 1 0-1.55 1.022 1.022 0 0 1 1.489 0l1.995 2.067 6.207-6.47a1.023 1.023 0 0 1 1.488 0 1.13 1.13 0 0 1 0 1.552m2.66-5.755L13.355.19a2.021 2.021 0 0 0-1.71 0L4.256 3.611C3.496 3.964 3 4.756 3 5.625v5.172C3 16.903 7.054 22.613 12.5 24c5.446-1.387 9.5-7.097 9.5-13.203V5.625c0-.869-.496-1.66-1.256-2.014"/>
</svg>
